<?xml version="1.0" encoding="UTF-8"?>
<svg xmlns="http://www.w3.org/2000/svg" xmlns:xlink="http://www.w3.org/1999/xlink" width="240px" height="36px" viewBox="0 0 240 36" version="1.1">
<g id="surface1">
<path style=" stroke:none;fill-rule:nonzero;fill:rgb(0%,60%,72.156863%);fill-opacity:1;" d="M 25.367188 26.496094 L 25.367188 27.664062 L 16.929688 27.664062 L 16.929688 26.496094 L 17.867188 26.496094 C 18.460938 26.539062 18.980469 26.089844 19.035156 25.496094 C 19.03125 25.203125 18.976562 24.914062 18.875 24.636719 C 18.367188 23.1875 17.191406 19.789062 16.882812 18.960938 L 6.234375 18.960938 C 5.335938 20.835938 4.132812 23.695312 4.132812 25.105469 C 4.132812 26.515625 4.519531 27.414062 5.128906 27.457031 C 5.128906 27.65625 4.460938 28.394531 2.863281 28.394531 C 1.027344 28.394531 0.867188 26.554688 0.867188 25.847656 C 0.800781 24.148438 1.9375 21.996094 2.953125 20 C 6.621094 12.710938 9.929688 5.945312 9.929688 3.789062 C 9.929688 2.070312 8.796875 1.867188 8.488281 1.835938 C 8.488281 1.4375 9.195312 0.660156 10.640625 0.660156 C 13.09375 0.660156 14.109375 2.738281 14.886719 4.929688 C 15.433594 6.496094 21.867188 24.265625 21.867188 24.265625 C 22.207031 25.449219 23.191406 26.335938 24.398438 26.546875 Z M 16.152344 16.671875 C 14.789062 13.03125 13.492188 9.195312 12.164062 5.546875 C 11.507812 7.117188 10.289062 10.601562 7.25 16.671875 Z M 16.152344 16.671875 "/>
<path style=" stroke:none;fill-rule:nonzero;fill:rgb(0%,60%,72.156863%);fill-opacity:1;" d="M 44.65625 9.195312 L 44.65625 10.195312 L 43.757812 10.195312 C 42.15625 10.195312 41.527344 10.851562 41.527344 13.082031 L 41.527344 26.847656 C 41.527344 31.664062 38.835938 35.839844 33.132812 35.839844 C 27.867188 35.839844 26.035156 33.53125 26.035156 32.164062 C 26.050781 31.019531 26.960938 30.089844 28.097656 30.054688 C 28.097656 31.851562 29.742188 34.054688 33.132812 34.054688 C 36.960938 34.054688 38.992188 31.054688 38.992188 27.054688 L 38.992188 17.648438 C 38.992188 13.773438 36.921875 10.792969 32.945312 10.792969 C 28.488281 10.792969 26.542969 14.554688 26.542969 18.550781 C 26.542969 23.085938 29.695312 25.714844 32.433594 25.714844 C 33.734375 25.804688 35.011719 25.367188 35.984375 24.496094 C 36.464844 24.664062 36.785156 25.125 36.773438 25.636719 C 36.773438 26.695312 35.554688 27.515625 32.515625 27.515625 C 27.695312 27.523438 23.777344 23.621094 23.757812 18.789062 C 23.757812 18.691406 23.757812 18.582031 23.757812 18.46875 C 23.757812 13.472656 26.839844 9.035156 32.972656 9.035156 C 35.867188 9.035156 38.085938 10.285156 38.957031 11.894531 L 38.957031 11.421875 C 38.957031 9.742188 40.089844 9.195312 41.6875 9.195312 Z M 44.65625 9.195312 "/>
<path style=" stroke:none;fill-rule:nonzero;fill:rgb(0%,60%,72.156863%);fill-opacity:1;" d="M 51.804688 19.878906 C 51.519531 19.492188 51.355469 19.03125 51.335938 18.550781 C 51.335938 17.339844 53.132812 17.339844 54.765625 17.339844 L 59.53125 17.339844 C 60.351562 17.339844 60.738281 17.101562 60.738281 16.28125 C 60.738281 12.992188 59.023438 9.933594 55.195312 9.933594 C 50.628906 9.933594 48.515625 14.242188 48.515625 18.550781 C 48.515625 22.457031 51.019531 26.414062 54.925781 26.414062 C 57.460938 26.566406 59.847656 25.230469 61.058594 22.996094 C 61.679688 23.265625 62.132812 23.820312 62.265625 24.488281 C 62.265625 26.207031 60.039062 28.164062 54.925781 28.164062 C 48.476562 28.164062 45.824219 22.957031 45.824219 18.582031 C 45.824219 12.78125 49.023438 8.242188 55.316406 8.242188 C 59.546875 8.082031 63.113281 11.382812 63.289062 15.621094 C 63.289062 15.839844 63.289062 16.050781 63.289062 16.273438 C 63.289062 19.128906 62.292969 19.128906 59.972656 19.128906 C 53.882812 19.128906 52.992188 19.128906 51.765625 19.910156 "/>
<path style=" stroke:none;fill-rule:nonzero;fill:rgb(0%,60%,72.156863%);fill-opacity:1;" d="M 86.589844 26.65625 L 86.589844 27.65625 L 84.128906 27.65625 C 82.015625 27.65625 81.136719 26.015625 81.136719 24.179688 L 81.136719 15.921875 C 81.136719 11.921875 79.421875 10.363281 76.570312 10.363281 C 73.210938 10.363281 70.589844 13.363281 70.589844 18.269531 L 70.589844 24.695312 C 70.589844 25.636719 71.019531 26.695312 72.101562 26.695312 L 72.894531 26.695312 L 72.894531 27.695312 L 65.183594 27.695312 L 65.183594 26.695312 L 66.179688 26.695312 C 67.136719 26.675781 67.917969 25.925781 67.976562 24.964844 L 67.976562 12.242188 C 67.976562 11.34375 67.695312 10.132812 66.0625 10.132812 L 65.183594 10.132812 L 65.183594 9.195312 L 67.757812 9.195312 C 70.03125 9.195312 70.460938 10.523438 70.460938 12.054688 C 71.867188 9.820312 74.320312 8.472656 76.949219 8.484375 C 81.632812 8.484375 83.742188 11.304688 83.742188 15.023438 L 83.742188 24.148438 C 83.632812 25.414062 84.5625 26.527344 85.820312 26.648438 L 86.589844 26.648438 Z M 86.589844 26.65625 "/>
<path style=" stroke:none;fill-rule:nonzero;fill:rgb(0%,60%,72.156863%);fill-opacity:1;" d="M 105.722656 24.105469 C 105.722656 25.476562 106.390625 26.65625 107.714844 26.65625 L 108.882812 26.65625 L 108.882812 27.65625 L 106.003906 27.65625 C 104.382812 27.6875 103.042969 26.398438 103.011719 24.777344 C 103.007812 24.695312 103.007812 24.609375 103.011719 24.527344 L 103.011719 17.179688 C 103.011719 13.261719 101.019531 10.445312 97.078125 10.445312 C 92.863281 10.445312 90.628906 14.511719 90.628906 18.667969 C 90.628906 22.828125 93.011719 26.457031 96.691406 26.457031 C 98.085938 26.480469 99.425781 25.929688 100.398438 24.925781 C 100.710938 25.28125 100.910156 25.71875 100.976562 26.183594 C 100.976562 27.984375 97.585938 28.09375 96.414062 28.09375 C 91.425781 28.09375 87.855469 23.835938 87.855469 18.589844 C 87.855469 14.082031 90.242188 8.765625 97.078125 8.765625 C 99.648438 8.765625 102.066406 9.816406 103.011719 11.421875 L 103.011719 3.554688 C 103.011719 2.554688 102.929688 1.167969 101.019531 1.167969 L 100.023438 1.167969 L 100.023438 0.167969 L 103.011719 0.167969 C 105.117188 0.167969 105.785156 1.226562 105.785156 3.296875 Z M 105.722656 24.105469 "/>
<path style=" stroke:none;fill-rule:nonzero;fill:rgb(0%,60%,72.156863%);fill-opacity:1;" d="M 128.375 26.65625 L 128.375 27.65625 L 126.382812 27.65625 C 123.25 27.65625 123.179688 25.507812 123.179688 24.40625 L 123.179688 18.410156 L 120.636719 18.410156 C 115.832031 18.410156 113.101562 19.507812 113.101562 22.679688 C 113.039062 24.628906 114.566406 26.257812 116.507812 26.316406 L 116.78125 26.316406 C 118.230469 26.382812 119.621094 25.726562 120.488281 24.554688 C 120.933594 24.746094 121.246094 25.164062 121.304688 25.648438 C 121.304688 26.476562 120.917969 27.925781 116.660156 27.925781 C 114.238281 27.925781 110.367188 26.597656 110.367188 22.636719 C 110.367188 17.820312 114.976562 16.730469 120.679688 16.730469 L 123.179688 16.730469 L 123.179688 14.914062 C 123.179688 13.144531 123.101562 9.914062 118.761719 9.914062 C 114.933594 9.914062 113.851562 12.542969 113.851562 14.421875 C 112.777344 14.378906 111.933594 13.496094 111.933594 12.421875 L 111.933594 12.351562 C 111.933594 9.960938 114.867188 8.242188 118.761719 8.242188 C 123.058594 8.242188 125.742188 9.882812 125.742188 14.941406 L 125.742188 23.746094 C 125.742188 25.585938 126.25 26.683594 127.738281 26.683594 Z M 128.375 26.65625 "/>
<path style=" stroke:none;fill-rule:nonzero;fill:rgb(0%,40.392157%,48.235294%);fill-opacity:1;" d="M 176.601562 33.902344 C 170.261719 33.898438 164.8125 29.414062 163.574219 23.183594 C 162.339844 16.953125 165.667969 10.71875 171.523438 8.289062 C 177.375 5.859375 184.125 7.914062 187.644531 13.195312 C 191.164062 18.476562 190.472656 25.511719 185.992188 30.003906 C 183.503906 32.507812 180.121094 33.910156 176.601562 33.902344 Z M 171.933594 26.90625 C 173.351562 28.035156 175.105469 28.648438 176.917969 28.644531 C 180.628906 28.648438 183.859375 26.101562 184.742188 22.492188 C 185.628906 18.878906 183.933594 15.125 180.644531 13.40625 C 177.351562 11.6875 173.316406 12.445312 170.867188 15.242188 C 168.417969 18.039062 168.191406 22.148438 170.320312 25.195312 L 168.960938 28.316406 L 171.953125 26.90625 Z M 171.933594 26.90625 "/>
<path style=" stroke:none;fill-rule:nonzero;fill:rgb(62.745098%,70.588235%,72.156863%);fill-opacity:1;" d="M 159.96875 8.535156 C 157.945312 8.628906 156.136719 9.835938 155.273438 11.671875 C 155.152344 10.023438 154.355469 9.101562 152.710938 9.101562 L 150 9.101562 L 150 10.101562 L 150.929688 10.101562 C 151.925781 10.101562 152.800781 10.632812 152.800781 12.445312 L 152.800781 24.117188 C 152.800781 24.886719 152.492188 26.183594 151.085938 26.183594 L 150.089844 26.183594 L 150.089844 27.183594 L 157.617188 27.183594 L 157.617188 26.183594 L 156.910156 26.183594 C 155.53125 26.183594 155.234375 24.964844 155.234375 23.886719 L 155.234375 17.609375 C 155.234375 13.664062 156.988281 10.101562 159.78125 10.101562 C 160.335938 10.042969 160.894531 10.210938 161.320312 10.570312 C 161.753906 10.925781 162.023438 11.445312 162.0625 12.003906 C 162.078125 12.117188 162.078125 12.230469 162.0625 12.34375 C 162.042969 12.851562 161.882812 13.339844 161.601562 13.761719 C 161.820312 14.101562 162.203125 14.289062 162.601562 14.261719 C 163.710938 14.261719 164.246094 13.113281 164.246094 12.152344 C 164.246094 10.152344 163.058594 8.554688 159.929688 8.554688 M 140.488281 8.894531 C 137.789062 8.945312 135.308594 10.378906 133.917969 12.695312 L 133.917969 11.484375 C 133.914062 10.164062 132.839844 9.101562 131.523438 9.101562 L 128.34375 9.101562 L 128.34375 10.101562 L 129.414062 10.101562 C 131.015625 10.101562 131.40625 11.210938 131.40625 12.363281 L 131.40625 32.351562 C 131.40625 32.960938 131.054688 34.273438 129.757812 34.273438 L 128.882812 34.273438 L 128.882812 35.273438 L 137.40625 35.273438 L 137.40625 34.273438 L 136.257812 34.273438 C 135.054688 34.316406 134.039062 33.382812 133.976562 32.171875 C 133.96875 32.082031 133.96875 31.988281 133.976562 31.894531 L 133.976562 18 C 133.976562 14.289062 136.96875 10.652344 140.546875 10.652344 C 144.128906 10.652344 145.820312 14.171875 145.820312 18.582031 C 145.820312 22.988281 143.488281 26.273438 140.429688 26.273438 C 139.054688 26.402344 137.71875 25.789062 136.917969 24.664062 C 136.464844 24.960938 136.1875 25.457031 136.171875 25.996094 C 136.171875 26.914062 137.167969 27.914062 140.257812 27.914062 C 145.101562 27.914062 148.351562 23.007812 148.351562 18.449219 C 148.351562 14.164062 147.019531 8.914062 140.527344 8.914062 "/>
<path style=" stroke:none;fill-rule:nonzero;fill:rgb(62.745098%,70.588235%,72.156863%);fill-opacity:1;" d="M 238.664062 26.183594 C 237.207031 26.183594 236.667969 25.117188 236.667969 23.320312 L 236.667969 14.703125 C 236.667969 9.753906 233.996094 8.144531 229.789062 8.144531 C 225.96875 8.144531 223.109375 9.835938 223.109375 12.144531 C 223.0625 13.191406 223.867188 14.082031 224.914062 14.140625 L 224.984375 14.140625 C 224.984375 12.304688 226.050781 9.734375 229.789062 9.734375 C 234.035156 9.734375 234.105469 12.914062 234.105469 14.640625 L 234.105469 16.441406 L 231.679688 16.441406 C 226.109375 16.441406 221.601562 17.507812 221.601562 22.21875 C 221.601562 26.085938 225.382812 27.394531 227.742188 27.394531 C 231.914062 27.394531 232.289062 25.976562 232.289062 25.164062 C 232.238281 24.691406 231.929688 24.28125 231.492188 24.097656 C 230.644531 25.238281 229.285156 25.882812 227.867188 25.816406 C 226.949219 25.859375 226.058594 25.535156 225.382812 24.914062 C 224.710938 24.296875 224.3125 23.433594 224.273438 22.519531 C 224.269531 22.429688 224.269531 22.34375 224.273438 22.257812 C 224.273438 19.160156 226.945312 18.082031 231.644531 18.082031 L 234.125 18.082031 L 234.125 23.996094 C 234.125 25.066406 234.207031 27.175781 237.257812 27.175781 L 239.199219 27.175781 L 239.199219 26.175781 Z M 219.25 26.183594 C 218.101562 26.175781 217.179688 25.238281 217.1875 24.085938 L 217.1875 12.09375 C 217.1875 10.210938 216.617188 9.09375 214.433594 9.09375 L 211.742188 9.09375 L 211.742188 10.09375 L 212.742188 10.09375 C 213.207031 10.023438 213.679688 10.148438 214.054688 10.433594 C 214.429688 10.71875 214.675781 11.144531 214.734375 11.613281 C 214.75 11.769531 214.75 11.929688 214.734375 12.085938 L 214.734375 24.078125 C 214.773438 24.632812 214.585938 25.179688 214.207031 25.585938 C 213.828125 25.996094 213.296875 26.226562 212.742188 26.226562 L 211.664062 26.226562 L 211.664062 27.226562 L 220.148438 27.226562 L 220.148438 26.226562 Z M 217.664062 2.828125 C 217.664062 1.828125 216.90625 1.21875 215.789062 1.21875 C 215.355469 1.167969 214.917969 1.292969 214.574219 1.570312 C 214.234375 1.839844 214.011719 2.242188 213.964844 2.679688 C 213.972656 2.726562 213.972656 2.777344 213.964844 2.828125 C 214.035156 3.738281 214.820312 4.425781 215.730469 4.367188 L 215.78125 4.367188 C 216.777344 4.367188 217.65625 3.828125 217.65625 2.835938 M 201.351562 8.882812 C 198.664062 8.929688 196.183594 10.359375 194.792969 12.671875 L 194.792969 11.484375 C 194.789062 10.164062 193.726562 9.101562 192.414062 9.09375 L 189.222656 9.09375 L 189.222656 10.09375 L 190.289062 10.09375 C 191.894531 10.09375 192.28125 11.203125 192.28125 12.351562 L 192.28125 32.34375 C 192.28125 32.953125 191.945312 34.261719 190.636719 34.261719 L 189.757812 34.261719 L 189.757812 35.261719 L 198.285156 35.261719 L 198.285156 34.261719 L 197.136719 34.261719 C 196.546875 34.300781 195.96875 34.101562 195.527344 33.703125 C 195.085938 33.308594 194.820312 32.753906 194.792969 32.164062 L 194.792969 18 C 194.792969 14.289062 197.785156 10.652344 201.367188 10.652344 C 205.070312 10.652344 206.636719 14.171875 206.636719 18.582031 C 206.636719 22.988281 204.304688 26.273438 201.253906 26.273438 C 199.878906 26.410156 198.539062 25.792969 197.734375 24.664062 C 197.292969 24.972656 197.023438 25.46875 197.007812 26.007812 C 197.007812 26.925781 198.003906 27.925781 201.09375 27.925781 C 205.949219 27.925781 209.199219 23.019531 209.199219 18.460938 C 209.199219 14.171875 207.851562 8.925781 201.367188 8.925781 "/>
</g>
</svg>
