<?xml version="1.0" encoding="UTF-8"?>
<svg xmlns="http://www.w3.org/2000/svg" xmlns:xlink="http://www.w3.org/1999/xlink" width="240px" height="36px" viewBox="0 0 239 36" version="1.1">
<g id="surface1">
<path style=" stroke:none;fill-rule:nonzero;fill:rgb(100%,100%,100%);fill-opacity:1;" d="M 24.628906 26.496094 L 24.628906 27.664062 L 16.171875 27.664062 L 16.171875 26.496094 L 17.113281 26.496094 C 17.707031 26.53125 18.222656 26.089844 18.28125 25.496094 C 18.28125 25.203125 18.230469 24.914062 18.132812 24.636719 C 17.621094 23.1875 16.441406 19.789062 16.132812 18.960938 L 5.488281 18.960938 C 4.578125 20.839844 3.367188 23.695312 3.367188 25.105469 C 3.367188 26.515625 3.757812 27.414062 4.367188 27.457031 C 4.367188 27.644531 3.699219 28.394531 2.089844 28.394531 C 0.261719 28.394531 0.0898438 26.554688 0.0898438 25.847656 C 0 24.148438 1.140625 21.996094 2.160156 20 C 5.835938 12.710938 9.15625 5.945312 9.15625 3.789062 C 9.15625 2.066406 8.015625 1.867188 7.707031 1.839844 C 7.707031 1.4375 8.40625 0.660156 9.855469 0.660156 C 12.324219 0.660156 13.34375 2.738281 14.121094 4.925781 C 14.671875 6.496094 21.121094 24.265625 21.121094 24.265625 C 21.460938 25.453125 22.453125 26.335938 23.667969 26.546875 Z M 15.382812 16.671875 C 14.011719 13.03125 12.722656 9.195312 11.382812 5.546875 C 10.726562 7.117188 9.484375 10.605469 6.488281 16.671875 Z M 15.382812 16.671875 "/>
<path style=" stroke:none;fill-rule:nonzero;fill:rgb(100%,100%,100%);fill-opacity:1;" d="M 43.96875 9.195312 L 43.96875 10.195312 L 43.058594 10.195312 C 41.460938 10.195312 40.828125 10.855469 40.828125 13.082031 L 40.828125 26.84375 C 40.828125 31.664062 38.128906 35.839844 32.414062 35.839844 C 27.125 35.839844 25.289062 33.53125 25.289062 32.164062 C 25.300781 31.015625 26.21875 30.082031 27.367188 30.042969 C 27.367188 31.851562 29.003906 34.042969 32.363281 34.042969 C 36.203125 34.042969 38.242188 31.042969 38.242188 27.046875 L 38.242188 17.648438 C 38.242188 13.773438 36.160156 10.792969 32.175781 10.792969 C 27.707031 10.792969 25.746094 14.550781 25.746094 18.550781 C 25.746094 23.085938 28.914062 25.714844 31.664062 25.714844 C 32.984375 25.820312 34.285156 25.378906 35.273438 24.496094 C 35.753906 24.667969 36.066406 25.128906 36.050781 25.636719 C 36.050781 26.695312 34.84375 27.515625 31.792969 27.515625 C 29.472656 27.523438 27.242188 26.609375 25.597656 24.972656 C 23.953125 23.335938 23.023438 21.109375 23.019531 18.789062 C 23.019531 18.691406 23.019531 18.578125 23.019531 18.46875 C 23.019531 13.472656 26.105469 9.035156 32.253906 9.035156 C 35.152344 9.035156 37.382812 10.285156 38.25 11.894531 L 38.25 11.421875 C 38.25 9.746094 39.390625 9.195312 40.988281 9.195312 Z M 43.96875 9.195312 "/>
<path style=" stroke:none;fill-rule:nonzero;fill:rgb(100%,100%,100%);fill-opacity:1;" d="M 51.125 19.878906 C 50.847656 19.488281 50.683594 19.027344 50.65625 18.550781 C 50.65625 17.332031 52.453125 17.332031 54.101562 17.332031 L 58.878906 17.332031 C 59.699219 17.332031 60.089844 17.101562 60.089844 16.332031 C 60.089844 13.042969 58.371094 9.984375 54.53125 9.984375 C 49.953125 9.984375 47.835938 14.292969 47.835938 18.601562 C 47.835938 22.507812 50.34375 26.464844 54.253906 26.464844 C 56.804688 26.609375 59.203125 25.253906 60.398438 22.996094 C 61.027344 23.261719 61.484375 23.820312 61.617188 24.488281 C 61.617188 26.207031 59.390625 28.164062 54.253906 28.164062 C 47.796875 28.164062 45.136719 22.957031 45.136719 18.578125 C 45.136719 12.78125 48.347656 8.246094 54.652344 8.246094 C 58.894531 8.082031 62.46875 11.378906 62.648438 15.621094 L 62.648438 16.269531 C 62.648438 19.128906 61.648438 19.128906 59.308594 19.128906 C 53.203125 19.128906 52.3125 19.128906 51.09375 19.910156 "/>
<path style=" stroke:none;fill-rule:nonzero;fill:rgb(100%,100%,100%);fill-opacity:1;" d="M 86.007812 26.65625 L 86.007812 27.65625 L 83.5 27.65625 C 81.390625 27.65625 80.5 26.015625 80.5 24.175781 L 80.5 15.921875 C 80.5 11.921875 78.769531 10.363281 75.910156 10.363281 C 72.554688 10.363281 69.914062 13.363281 69.914062 18.269531 L 69.914062 24.695312 C 69.914062 25.636719 70.34375 26.695312 71.445312 26.695312 L 72.222656 26.695312 L 72.222656 27.695312 L 64.519531 27.695312 L 64.519531 26.695312 L 65.515625 26.695312 C 66.476562 26.675781 67.265625 25.925781 67.328125 24.964844 L 67.328125 12.242188 C 67.328125 11.34375 67.046875 10.132812 65.40625 10.132812 L 64.507812 10.132812 L 64.507812 9.195312 L 67.085938 9.195312 C 69.355469 9.195312 69.785156 10.523438 69.785156 12.054688 C 71.199219 9.8125 73.671875 8.464844 76.320312 8.484375 C 81.019531 8.484375 83.136719 11.304688 83.136719 15.023438 L 83.136719 24.148438 C 83.027344 25.410156 83.957031 26.523438 85.21875 26.644531 L 85.996094 26.644531 Z M 86.007812 26.65625 "/>
<path style=" stroke:none;fill-rule:nonzero;fill:rgb(100%,100%,100%);fill-opacity:1;" d="M 105.1875 24.105469 C 105.1875 25.476562 105.847656 26.65625 107.1875 26.65625 L 108.355469 26.65625 L 108.355469 27.65625 L 105.4375 27.65625 C 104.65625 27.675781 103.902344 27.378906 103.339844 26.839844 C 102.777344 26.300781 102.453125 25.558594 102.4375 24.777344 C 102.433594 24.695312 102.433594 24.609375 102.4375 24.527344 L 102.4375 17.179688 C 102.4375 13.261719 100.441406 10.445312 96.441406 10.445312 C 92.214844 10.445312 89.984375 14.511719 89.984375 18.667969 C 89.984375 22.828125 92.445312 26.457031 96.140625 26.457031 C 97.539062 26.488281 98.890625 25.933594 99.859375 24.925781 C 100.175781 25.277344 100.382812 25.714844 100.449219 26.1875 C 100.449219 27.984375 97.042969 28.09375 95.871094 28.09375 C 90.875 28.09375 87.296875 23.835938 87.296875 18.589844 C 87.296875 14.082031 89.683594 8.765625 96.53125 8.765625 C 99.121094 8.765625 101.527344 9.8125 102.527344 11.421875 L 102.527344 3.558594 C 102.527344 2.558594 102.449219 1.167969 100.53125 1.167969 L 99.53125 1.167969 L 99.53125 0.167969 L 102.527344 0.167969 C 104.636719 0.167969 105.308594 1.226562 105.308594 3.296875 Z M 105.1875 24.105469 "/>
<path style=" stroke:none;fill-rule:nonzero;fill:rgb(100%,100%,100%);fill-opacity:1;" d="M 127.894531 26.65625 L 127.894531 27.65625 L 125.898438 27.65625 C 122.769531 27.65625 122.6875 25.507812 122.6875 24.40625 L 122.6875 18.410156 L 120.148438 18.410156 C 115.332031 18.410156 112.59375 19.5 112.59375 22.675781 C 112.53125 24.625 114.0625 26.257812 116.011719 26.316406 L 116.273438 26.316406 C 117.726562 26.386719 119.121094 25.726562 119.988281 24.558594 C 120.441406 24.742188 120.757812 25.160156 120.820312 25.644531 C 120.820312 26.476562 120.417969 27.925781 116.160156 27.925781 C 113.734375 27.925781 109.855469 26.59375 109.855469 22.636719 C 109.855469 17.820312 114.472656 16.730469 120.191406 16.730469 L 122.699219 16.730469 L 122.699219 14.910156 C 122.699219 13.140625 122.609375 9.914062 118.269531 9.914062 C 114.433594 9.914062 113.332031 12.542969 113.332031 14.421875 C 112.261719 14.378906 111.414062 13.496094 111.414062 12.421875 L 111.414062 12.351562 C 111.414062 9.964844 114.351562 8.246094 118.269531 8.246094 C 122.578125 8.246094 125.265625 9.882812 125.265625 14.941406 L 125.265625 23.746094 C 125.265625 25.585938 125.777344 26.6875 127.265625 26.6875 Z M 127.894531 26.65625 "/>
<path style=" stroke:none;fill-rule:nonzero;fill:rgb(100%,100%,100%);fill-opacity:1;" d="M 176.242188 33.902344 C 169.890625 33.902344 164.425781 29.414062 163.1875 23.183594 C 161.949219 16.953125 165.28125 10.71875 171.152344 8.289062 C 177.019531 5.859375 183.789062 7.914062 187.316406 13.195312 C 190.84375 18.476562 190.148438 25.511719 185.65625 30.003906 C 183.160156 32.503906 179.773438 33.90625 176.242188 33.902344 Z M 171.5625 26.90625 C 172.980469 28.039062 174.746094 28.652344 176.5625 28.632812 C 180.277344 28.632812 183.511719 26.09375 184.394531 22.484375 C 185.277344 18.875 183.582031 15.128906 180.285156 13.414062 C 176.988281 11.699219 172.945312 12.457031 170.496094 15.25 C 168.046875 18.046875 167.824219 22.152344 169.953125 25.195312 L 168.59375 28.316406 L 171.59375 26.90625 Z M 171.5625 26.90625 "/>
<path style=" stroke:none;fill-rule:nonzero;fill:rgb(100%,100%,100%);fill-opacity:1;" d="M 159.570312 8.535156 C 157.539062 8.628906 155.722656 9.835938 154.851562 11.671875 C 154.742188 10.023438 153.933594 9.105469 152.292969 9.105469 L 149.574219 9.105469 L 149.574219 10.105469 L 150.414062 10.105469 C 151.414062 10.105469 152.292969 10.632812 152.292969 12.441406 L 152.292969 24.117188 C 152.292969 24.886719 151.984375 26.1875 150.5625 26.1875 L 149.566406 26.1875 L 149.566406 27.183594 L 157.109375 27.183594 L 157.109375 26.1875 L 156.53125 26.1875 C 155.152344 26.1875 154.851562 24.957031 154.851562 23.886719 L 154.851562 17.609375 C 154.851562 13.664062 156.613281 10.105469 159.398438 10.105469 C 159.953125 10.050781 160.503906 10.222656 160.929688 10.578125 C 161.359375 10.9375 161.625 11.449219 161.667969 12.003906 C 161.679688 12.117188 161.679688 12.230469 161.667969 12.34375 C 161.648438 12.847656 161.488281 13.339844 161.210938 13.761719 C 161.425781 14.097656 161.808594 14.289062 162.207031 14.261719 C 163.316406 14.261719 163.859375 13.113281 163.859375 12.152344 C 163.859375 10.152344 162.667969 8.554688 159.53125 8.554688 M 140.039062 8.894531 C 137.335938 8.9375 134.847656 10.375 133.453125 12.691406 L 133.453125 11.484375 C 133.449219 10.164062 132.375 9.097656 131.054688 9.105469 L 127.855469 9.105469 L 127.855469 10.105469 L 128.925781 10.105469 C 130.535156 10.105469 130.925781 11.214844 130.925781 12.363281 L 130.925781 32.351562 C 130.925781 32.960938 130.574219 34.273438 129.273438 34.273438 L 128.425781 34.273438 L 128.425781 35.269531 L 136.960938 35.269531 L 136.960938 34.273438 L 135.820312 34.273438 C 134.605469 34.339844 133.5625 33.417969 133.484375 32.203125 L 133.484375 18 C 133.484375 14.292969 136.480469 10.652344 140.078125 10.652344 C 143.679688 10.652344 145.355469 14.171875 145.355469 18.578125 C 145.355469 22.988281 143.027344 26.277344 139.960938 26.277344 C 138.566406 26.402344 137.214844 25.765625 136.421875 24.617188 C 135.972656 24.917969 135.699219 25.417969 135.683594 25.957031 C 135.683594 26.875 136.679688 27.875 139.78125 27.875 C 144.648438 27.875 147.90625 22.96875 147.90625 18.410156 C 147.90625 14.121094 146.566406 8.875 140.050781 8.875 "/>
<path style=" stroke:none;fill-rule:nonzero;fill:rgb(100%,100%,100%);fill-opacity:1;" d="M 238.429688 26.1875 C 236.980469 26.1875 236.480469 25.117188 236.480469 23.316406 L 236.480469 14.703125 C 236.480469 9.753906 233.800781 8.144531 229.585938 8.144531 C 225.757812 8.144531 222.886719 9.835938 222.886719 12.144531 C 222.84375 13.1875 223.644531 14.078125 224.6875 14.140625 L 224.757812 14.140625 C 224.757812 12.304688 225.835938 9.734375 229.585938 9.734375 C 233.832031 9.734375 233.914062 12.914062 233.914062 14.640625 L 233.914062 16.441406 L 231.464844 16.441406 C 225.867188 16.441406 221.347656 17.511719 221.347656 22.21875 C 221.347656 26.085938 225.148438 27.394531 227.515625 27.394531 C 231.695312 27.394531 232.074219 25.976562 232.074219 25.167969 C 232.019531 24.691406 231.714844 24.28125 231.273438 24.097656 C 230.421875 25.238281 229.058594 25.882812 227.636719 25.816406 C 226.71875 25.859375 225.824219 25.535156 225.148438 24.917969 C 224.472656 24.296875 224.074219 23.433594 224.039062 22.519531 C 224.03125 22.429688 224.03125 22.34375 224.039062 22.257812 C 224.039062 19.160156 226.726562 18.078125 231.433594 18.078125 L 233.921875 18.078125 L 233.921875 23.996094 C 233.921875 25.066406 234.003906 27.175781 237.0625 27.175781 L 239.011719 27.175781 L 239.011719 26.175781 Z M 218.980469 26.1875 C 217.832031 26.175781 216.90625 25.238281 216.910156 24.085938 L 216.910156 12.09375 C 216.910156 10.214844 216.332031 9.09375 214.152344 9.09375 L 211.515625 9.09375 L 211.515625 10.09375 L 212.433594 10.09375 C 212.902344 10.039062 213.371094 10.171875 213.738281 10.46875 C 214.105469 10.761719 214.335938 11.195312 214.382812 11.664062 C 214.402344 11.820312 214.402344 11.976562 214.382812 12.132812 L 214.382812 24.125 C 214.414062 24.660156 214.226562 25.183594 213.867188 25.582031 C 213.511719 25.976562 213.007812 26.210938 212.472656 26.234375 L 211.382812 26.234375 L 211.382812 27.234375 L 219.878906 27.234375 L 219.878906 26.234375 Z M 217.378906 2.828125 C 217.378906 1.828125 216.609375 1.21875 215.5 1.21875 C 215.066406 1.167969 214.628906 1.292969 214.285156 1.566406 C 213.941406 1.839844 213.71875 2.242188 213.671875 2.675781 C 213.671875 2.726562 213.671875 2.777344 213.671875 2.828125 C 213.742188 3.746094 214.542969 4.4375 215.460938 4.367188 L 215.511719 4.367188 C 216.511719 4.367188 217.390625 3.828125 217.390625 2.835938 M 201.039062 8.835938 C 198.335938 8.878906 195.84375 10.316406 194.453125 12.632812 L 194.453125 11.433594 C 194.441406 10.117188 193.371094 9.054688 192.054688 9.054688 L 188.855469 9.054688 L 188.855469 10.054688 L 189.933594 10.054688 C 191.542969 10.054688 191.933594 11.164062 191.933594 12.3125 L 191.933594 32.304688 C 191.933594 32.914062 191.582031 34.222656 190.285156 34.222656 L 189.394531 34.222656 L 189.394531 35.222656 L 197.929688 35.222656 L 197.929688 34.222656 L 196.792969 34.222656 C 195.574219 34.296875 194.527344 33.371094 194.453125 32.152344 C 194.441406 32.0625 194.441406 31.972656 194.453125 31.882812 L 194.453125 18 C 194.453125 14.292969 197.449219 10.652344 201.039062 10.652344 C 204.757812 10.652344 206.328125 14.171875 206.328125 18.578125 C 206.328125 22.988281 203.988281 26.277344 200.917969 26.277344 C 199.53125 26.398438 198.183594 25.765625 197.390625 24.617188 C 196.941406 24.929688 196.679688 25.449219 196.691406 25.996094 C 196.691406 26.914062 197.691406 27.914062 200.789062 27.914062 C 205.648438 27.914062 208.90625 23.007812 208.90625 18.449219 C 208.90625 14.160156 207.566406 8.914062 201.058594 8.914062 "/>
</g>
</svg>
