<?xml version="1.0" encoding="UTF-8"?>
<svg xmlns="http://www.w3.org/2000/svg" xmlns:xlink="http://www.w3.org/1999/xlink" width="160px" height="46px" viewBox="0 0 159 46" version="1.1">
<g id="surface1">
<path style=" stroke:none;fill-rule:nonzero;fill:rgb(100%,100%,100%);fill-opacity:1;" d="M 3.925781 27.128906 C 3.925781 26.34375 4.195312 25.683594 4.582031 25.292969 C 5.105469 24.898438 5.632812 24.636719 6.417969 24.636719 L 15.457031 24.636719 C 15.582031 24.898438 15.71875 25.160156 15.84375 25.421875 C 15.980469 25.820312 15.980469 26.082031 15.980469 26.46875 C 15.980469 27.128906 15.84375 27.652344 15.582031 27.914062 C 15.320312 28.175781 14.933594 28.304688 14.410156 28.304688 L 8.644531 28.304688 L 8.644531 30.925781 L 14.796875 30.925781 C 14.933594 31.1875 15.058594 31.449219 15.195312 31.710938 C 15.320312 31.972656 15.320312 32.363281 15.320312 32.757812 C 15.320312 33.410156 15.195312 33.941406 14.933594 34.203125 C 14.671875 34.464844 14.273438 34.59375 13.75 34.59375 L 8.644531 34.59375 L 8.644531 37.472656 L 15.71875 37.472656 C 15.84375 37.738281 15.980469 38 16.105469 38.261719 C 16.242188 38.652344 16.242188 38.914062 16.242188 39.308594 C 16.242188 39.960938 16.105469 40.484375 15.84375 40.746094 C 15.582031 41.011719 15.195312 41.144531 14.671875 41.144531 L 6.550781 41.144531 C 5.765625 41.144531 5.105469 40.882812 4.71875 40.484375 C 4.195312 40.222656 3.925781 39.574219 3.925781 38.785156 Z M 3.925781 27.128906 "/>
<path style=" stroke:none;fill-rule:nonzero;fill:rgb(100%,100%,100%);fill-opacity:1;" d="M 25.410156 41.667969 C 25.148438 41.667969 24.75 41.667969 24.359375 41.667969 C 23.964844 41.667969 23.574219 41.667969 23.050781 41.535156 C 22.65625 41.535156 22.132812 41.40625 21.742188 41.273438 C 21.347656 41.144531 20.957031 41.144531 20.5625 40.882812 C 19.515625 40.484375 18.992188 39.835938 18.992188 38.914062 L 18.992188 26.082031 C 18.992188 25.683594 19.121094 25.421875 19.253906 25.160156 C 19.515625 24.898438 19.777344 24.765625 20.167969 24.636719 C 20.957031 24.375 21.742188 24.242188 22.65625 24.113281 C 23.574219 23.980469 24.359375 23.980469 25.011719 23.980469 C 26.457031 23.980469 27.765625 24.113281 28.945312 24.503906 C 30.125 24.898438 31.171875 25.421875 31.957031 26.082031 C 32.742188 26.867188 33.394531 27.652344 33.925781 28.828125 C 34.449219 29.878906 34.574219 31.1875 34.574219 32.757812 C 34.574219 34.203125 34.3125 35.511719 33.925781 36.558594 C 33.527344 37.605469 32.871094 38.523438 32.085938 39.308594 C 31.300781 40.097656 30.253906 40.621094 29.207031 41.011719 C 28.027344 41.535156 26.71875 41.667969 25.410156 41.667969 Z M 23.835938 37.605469 C 24.097656 37.605469 24.226562 37.738281 24.621094 37.738281 C 24.886719 37.738281 25.148438 37.738281 25.410156 37.738281 C 26.066406 37.738281 26.589844 37.605469 27.113281 37.472656 C 27.636719 37.34375 28.027344 36.949219 28.421875 36.558594 C 28.8125 36.164062 29.074219 35.640625 29.339844 35.117188 C 29.601562 34.59375 29.601562 33.808594 29.601562 32.886719 C 29.601562 31.1875 29.207031 30.007812 28.421875 29.222656 C 27.636719 28.4375 26.589844 27.914062 25.28125 27.914062 C 25.011719 27.914062 24.75 27.914062 24.488281 27.914062 C 24.226562 27.914062 23.964844 27.914062 23.703125 28.042969 L 23.703125 37.605469 Z M 23.835938 37.605469 "/>
<path style=" stroke:none;fill-rule:nonzero;fill:rgb(100%,100%,100%);fill-opacity:1;" d="M 52.125 35.117188 C 52.125 36.164062 51.996094 36.949219 51.601562 37.867188 C 51.210938 38.652344 50.816406 39.4375 50.160156 39.960938 C 49.507812 40.484375 48.722656 41.011719 47.804688 41.273438 C 46.890625 41.535156 45.835938 41.796875 44.664062 41.796875 C 43.480469 41.796875 42.433594 41.667969 41.515625 41.273438 C 40.601562 41.011719 39.816406 40.484375 39.160156 39.960938 C 38.507812 39.4375 37.984375 38.652344 37.722656 37.867188 C 37.328125 37.082031 37.195312 36.164062 37.195312 35.117188 L 37.195312 24.636719 C 37.457031 24.636719 37.722656 24.503906 38.113281 24.503906 C 38.507812 24.503906 39.03125 24.375 39.421875 24.375 C 39.816406 24.375 40.207031 24.375 40.601562 24.503906 C 40.863281 24.503906 41.253906 24.636719 41.386719 24.898438 C 41.648438 25.027344 41.777344 25.292969 41.910156 25.558594 C 42.042969 25.820312 42.042969 26.207031 42.042969 26.730469 L 42.042969 35.117188 C 42.042969 36.035156 42.304688 36.6875 42.828125 37.210938 C 43.351562 37.738281 44.003906 38 44.664062 38 C 45.449219 38 46.105469 37.738281 46.496094 37.210938 C 47.019531 36.6875 47.152344 36.035156 47.152344 35.117188 L 47.152344 24.636719 C 47.414062 24.636719 47.675781 24.503906 48.066406 24.503906 C 48.460938 24.503906 48.984375 24.375 49.375 24.375 C 49.769531 24.375 50.160156 24.375 50.554688 24.503906 C 50.816406 24.503906 51.210938 24.636719 51.339844 24.898438 C 51.601562 25.027344 51.734375 25.292969 51.863281 25.558594 C 51.996094 25.820312 51.996094 26.207031 51.996094 26.730469 L 51.996094 35.117188 Z M 52.125 35.117188 "/>
<path style=" stroke:none;fill-rule:nonzero;fill:rgb(100%,100%,100%);fill-opacity:1;" d="M 64.179688 27.914062 C 62.734375 27.914062 61.6875 28.304688 60.902344 29.222656 C 60.117188 30.140625 59.722656 31.316406 59.722656 32.886719 C 59.722656 34.464844 60.117188 35.773438 61.03125 36.558594 C 61.816406 37.472656 62.996094 37.867188 64.441406 37.867188 C 65.226562 37.867188 65.878906 37.738281 66.402344 37.605469 C 66.925781 37.34375 67.453125 37.210938 67.84375 36.949219 C 68.105469 37.210938 68.367188 37.472656 68.628906 37.867188 C 68.761719 38.261719 68.890625 38.652344 68.890625 39.175781 C 68.890625 39.960938 68.5 40.621094 67.582031 41.144531 C 66.796875 41.667969 65.488281 41.929688 63.78125 41.929688 C 62.601562 41.929688 61.425781 41.796875 60.378906 41.40625 C 59.332031 41.011719 58.414062 40.484375 57.496094 39.835938 C 56.710938 39.046875 56.058594 38.128906 55.535156 37.082031 C 55.011719 36.035156 54.878906 34.59375 54.878906 33.148438 C 54.878906 31.710938 55.140625 30.402344 55.535156 29.355469 C 55.925781 28.304688 56.582031 27.390625 57.367188 26.605469 C 58.152344 25.820312 59.070312 25.292969 60.117188 24.898438 C 61.164062 24.503906 62.339844 24.375 63.519531 24.375 C 65.226562 24.375 66.535156 24.636719 67.453125 25.160156 C 68.367188 25.683594 68.890625 26.46875 68.890625 27.257812 C 68.890625 27.78125 68.761719 28.175781 68.5 28.4375 C 68.238281 28.828125 67.976562 29.089844 67.714844 29.222656 C 67.191406 28.960938 66.664062 28.699219 66.140625 28.4375 C 65.488281 28.042969 64.828125 27.914062 64.179688 27.914062 Z M 64.179688 27.914062 "/>
<path style=" stroke:none;fill-rule:nonzero;fill:rgb(100%,100%,100%);fill-opacity:1;" d="M 75.304688 25.027344 C 75.574219 24.898438 76.097656 24.636719 76.75 24.503906 C 77.40625 24.375 78.058594 24.242188 78.714844 24.242188 C 79.632812 24.242188 80.417969 24.375 81.203125 24.636719 C 81.855469 24.898438 82.378906 25.292969 82.511719 25.945312 C 82.902344 26.867188 83.164062 28.042969 83.558594 29.222656 C 83.957031 30.53125 84.34375 31.839844 84.742188 33.148438 C 85.132812 34.464844 85.527344 35.773438 85.917969 37.082031 C 86.3125 38.390625 86.574219 39.574219 86.835938 40.621094 C 86.574219 40.882812 86.3125 41.144531 85.789062 41.273438 C 85.394531 41.40625 84.867188 41.535156 84.21875 41.535156 C 83.820312 41.535156 83.425781 41.535156 83.035156 41.40625 C 82.773438 41.273438 82.511719 41.273438 82.25 41.011719 C 81.988281 40.746094 81.855469 40.621094 81.726562 40.484375 C 81.59375 40.222656 81.464844 39.960938 81.464844 39.699219 L 80.941406 37.867188 L 75.964844 37.867188 C 75.835938 38.390625 75.703125 39.046875 75.574219 39.574219 C 75.441406 40.097656 75.304688 40.746094 75.179688 41.273438 C 74.917969 41.40625 74.65625 41.40625 74.394531 41.535156 C 74.132812 41.535156 73.734375 41.667969 73.34375 41.667969 C 72.425781 41.667969 71.773438 41.535156 71.25 41.144531 C 70.855469 40.882812 70.59375 40.359375 70.59375 39.835938 C 70.59375 39.574219 70.59375 39.308594 70.722656 39.046875 C 70.855469 38.785156 70.855469 38.523438 70.984375 38.128906 C 71.117188 37.605469 71.25 37.082031 71.511719 36.296875 C 71.773438 35.511719 72.035156 34.726562 72.296875 33.941406 C 72.558594 33.019531 72.820312 32.234375 73.210938 31.316406 C 73.472656 30.402344 73.867188 29.617188 74.132812 28.828125 C 74.394531 28.042969 74.65625 27.257812 74.917969 26.730469 C 75.042969 25.820312 75.179688 25.421875 75.304688 25.027344 Z M 78.582031 28.566406 C 78.320312 29.355469 78.058594 30.140625 77.667969 31.1875 C 77.40625 32.101562 77.011719 33.148438 76.75 34.070312 L 80.15625 34.070312 C 79.894531 33.019531 79.632812 32.101562 79.367188 31.1875 C 79.105469 30.269531 78.84375 29.355469 78.582031 28.699219 Z M 78.582031 28.566406 "/>
<path style=" stroke:none;fill-rule:nonzero;fill:rgb(100%,100%,100%);fill-opacity:1;" d="M 97.3125 27.914062 C 95.871094 27.914062 94.820312 28.304688 94.035156 29.222656 C 93.25 30.140625 92.859375 31.316406 92.859375 32.886719 C 92.859375 34.464844 93.25 35.773438 94.171875 36.558594 C 94.957031 37.472656 96.132812 37.867188 97.574219 37.867188 C 98.359375 37.867188 99.015625 37.738281 99.539062 37.605469 C 100.0625 37.34375 100.585938 37.210938 100.980469 36.949219 C 101.242188 37.210938 101.503906 37.472656 101.765625 37.867188 C 101.894531 38.261719 102.027344 38.652344 102.027344 39.175781 C 102.027344 39.960938 101.632812 40.621094 100.71875 41.144531 C 99.929688 41.667969 98.621094 41.929688 96.921875 41.929688 C 95.742188 41.929688 94.558594 41.796875 93.511719 41.40625 C 92.464844 41.011719 91.546875 40.484375 90.632812 39.835938 C 89.847656 39.046875 89.191406 38.128906 88.667969 37.082031 C 88.144531 36.035156 88.015625 34.59375 88.015625 33.148438 C 88.015625 31.710938 88.277344 30.402344 88.667969 29.355469 C 89.0625 28.304688 89.714844 27.390625 90.5 26.605469 C 91.285156 25.820312 92.203125 25.292969 93.25 24.898438 C 94.296875 24.503906 95.480469 24.375 96.660156 24.375 C 98.359375 24.375 99.667969 24.636719 100.585938 25.160156 C 101.503906 25.683594 102.027344 26.46875 102.027344 27.257812 C 102.027344 27.78125 101.894531 28.175781 101.632812 28.4375 C 101.371094 28.828125 101.109375 29.089844 100.847656 29.222656 C 100.324219 28.960938 99.800781 28.699219 99.277344 28.4375 C 98.621094 28.042969 97.96875 27.914062 97.3125 27.914062 Z M 97.3125 27.914062 "/>
<path style=" stroke:none;fill-rule:nonzero;fill:rgb(100%,100%,100%);fill-opacity:1;" d="M 109.230469 41.144531 C 108.96875 41.144531 108.707031 41.273438 108.3125 41.273438 C 107.921875 41.273438 107.398438 41.40625 107.003906 41.40625 C 106.613281 41.40625 106.21875 41.40625 105.828125 41.273438 C 105.566406 41.273438 105.171875 41.144531 105.042969 40.882812 C 104.78125 40.746094 104.648438 40.484375 104.511719 40.222656 C 104.386719 39.960938 104.386719 39.574219 104.386719 39.046875 L 104.386719 24.503906 C 104.648438 24.503906 104.910156 24.375 105.304688 24.375 C 105.695312 24.375 106.21875 24.242188 106.613281 24.242188 C 107.003906 24.242188 107.398438 24.242188 107.789062 24.375 C 108.050781 24.375 108.445312 24.503906 108.574219 24.765625 C 108.839844 24.898438 108.96875 25.160156 109.101562 25.421875 C 109.230469 25.683594 109.230469 26.082031 109.230469 26.605469 Z M 109.230469 41.144531 "/>
<path style=" stroke:none;fill-rule:nonzero;fill:rgb(100%,100%,100%);fill-opacity:1;" d="M 111.980469 32.886719 C 111.980469 31.449219 112.242188 30.140625 112.632812 29.089844 C 113.027344 28.042969 113.6875 27.128906 114.472656 26.34375 C 115.257812 25.558594 116.171875 25.027344 117.222656 24.636719 C 118.269531 24.242188 119.445312 24.113281 120.625 24.113281 C 121.804688 24.113281 122.980469 24.242188 124.027344 24.636719 C 125.074219 25.027344 125.996094 25.558594 126.78125 26.34375 C 127.566406 27.128906 128.222656 28.042969 128.613281 29.089844 C 129.007812 30.140625 129.269531 31.449219 129.269531 32.886719 C 129.269531 34.332031 129.007812 35.640625 128.613281 36.6875 C 128.222656 37.738281 127.566406 38.785156 126.78125 39.4375 C 125.996094 40.222656 125.074219 40.746094 124.027344 41.144531 C 122.980469 41.535156 121.804688 41.667969 120.625 41.667969 C 119.445312 41.667969 118.269531 41.40625 117.222656 41.011719 C 116.171875 40.621094 115.257812 40.097656 114.472656 39.308594 C 113.6875 38.523438 113.164062 37.605469 112.632812 36.558594 C 112.242188 35.511719 111.980469 34.332031 111.980469 32.886719 Z M 116.957031 32.886719 C 116.957031 34.59375 117.351562 35.773438 118.007812 36.6875 C 118.660156 37.472656 119.578125 37.867188 120.753906 37.867188 C 121.933594 37.867188 122.851562 37.472656 123.503906 36.6875 C 124.164062 35.902344 124.550781 34.59375 124.550781 32.886719 C 124.550781 31.1875 124.164062 30.007812 123.503906 29.222656 C 122.851562 28.4375 121.933594 28.042969 120.753906 28.042969 C 119.578125 28.042969 118.660156 28.4375 118.007812 29.222656 C 117.351562 30.007812 116.957031 31.1875 116.957031 32.886719 Z M 122.195312 17.824219 C 123.113281 17.957031 123.765625 18.085938 124.164062 18.480469 C 124.550781 18.871094 124.6875 19.269531 124.6875 19.792969 C 124.6875 20.316406 124.550781 20.707031 124.289062 21.101562 C 124.027344 21.496094 123.503906 21.757812 122.851562 22.019531 L 119.054688 23.457031 C 118.53125 23.328125 118.136719 23.066406 117.746094 22.804688 C 117.484375 22.410156 117.222656 22.148438 117.222656 21.757812 C 117.222656 21.496094 117.351562 21.234375 117.484375 20.972656 C 117.613281 20.707031 117.875 20.578125 118.136719 20.441406 Z M 122.195312 17.824219 "/>
<path style=" stroke:none;fill-rule:nonzero;fill:rgb(100%,100%,100%);fill-opacity:1;" d="M 147.34375 40.621094 C 147.082031 40.882812 146.691406 41.011719 146.164062 41.273438 C 145.640625 41.535156 145.113281 41.535156 144.464844 41.535156 C 143.804688 41.535156 143.15625 41.40625 142.496094 41.273438 C 141.839844 41.011719 141.449219 40.621094 141.054688 39.835938 L 138.308594 34.332031 C 138.042969 33.808594 137.78125 33.285156 137.519531 32.757812 C 137.257812 32.234375 137.128906 31.710938 136.867188 31.054688 L 136.734375 31.054688 C 136.867188 32.101562 136.867188 33.019531 136.867188 34.070312 C 136.867188 35.117188 136.867188 36.164062 136.867188 37.082031 L 136.867188 41.40625 C 136.605469 41.40625 136.34375 41.535156 135.949219 41.535156 C 135.558594 41.535156 135.164062 41.667969 134.773438 41.667969 C 134.378906 41.667969 133.988281 41.667969 133.71875 41.535156 C 133.457031 41.535156 133.195312 41.40625 132.933594 41.144531 C 132.671875 41.011719 132.542969 40.746094 132.410156 40.484375 C 132.28125 40.222656 132.28125 39.835938 132.28125 39.308594 L 132.28125 25.421875 C 132.542969 25.027344 132.933594 24.765625 133.457031 24.636719 C 133.988281 24.503906 134.511719 24.375 135.164062 24.375 C 135.820312 24.375 136.472656 24.503906 137.128906 24.636719 C 137.78125 24.898438 138.175781 25.292969 138.570312 26.082031 L 141.316406 31.578125 C 141.578125 32.101562 141.839844 32.625 142.101562 33.148438 C 142.367188 33.679688 142.496094 34.203125 142.757812 34.855469 L 142.894531 34.855469 C 142.757812 33.808594 142.757812 32.886719 142.757812 31.839844 C 142.757812 30.792969 142.757812 29.878906 142.757812 28.828125 L 142.757812 24.375 C 143.019531 24.375 143.28125 24.242188 143.679688 24.242188 C 144.066406 24.242188 144.464844 24.113281 144.851562 24.113281 C 145.640625 24.113281 146.296875 24.242188 146.691406 24.503906 C 147.082031 24.765625 147.34375 25.421875 147.34375 26.34375 Z M 147.34375 40.621094 "/>
<path style=" stroke:none;fill-rule:nonzero;fill:rgb(100%,100%,100%);fill-opacity:1;" d="M 140.402344 15.859375 C 140.269531 15.859375 140.140625 15.730469 140.007812 15.730469 C 135.164062 14.027344 130.316406 12.320312 125.335938 10.488281 C 124.8125 10.359375 124.550781 9.964844 124.550781 9.574219 C 124.550781 9.179688 124.8125 8.789062 125.335938 8.65625 C 130.1875 6.953125 135.164062 5.253906 140.007812 3.546875 C 140.402344 3.414062 140.664062 3.414062 140.925781 3.546875 C 145.25 5.117188 149.699219 6.691406 154.019531 8.132812 C 154.417969 8.261719 154.941406 8.394531 155.335938 8.65625 C 155.859375 8.917969 156.121094 9.179688 156.121094 9.574219 C 156.121094 9.964844 155.859375 10.359375 155.335938 10.488281 C 151.796875 11.667969 148.390625 12.980469 144.851562 14.160156 C 143.542969 14.683594 142.101562 15.074219 140.792969 15.597656 C 140.664062 15.730469 140.53125 15.730469 140.402344 15.859375 Z M 140.402344 15.859375 "/>
<path style=" stroke:none;fill-rule:nonzero;fill:rgb(100%,100%,100%);fill-opacity:1;" d="M 131.101562 14.550781 C 131.886719 14.8125 132.671875 15.074219 133.328125 15.335938 C 135.296875 15.992188 137.257812 16.777344 139.355469 17.433594 C 140.007812 17.695312 140.664062 17.695312 141.316406 17.433594 C 143.941406 16.515625 146.691406 15.597656 149.308594 14.550781 C 149.4375 14.550781 149.4375 14.550781 149.699219 14.421875 C 149.699219 14.550781 149.699219 14.683594 149.699219 14.8125 C 149.699219 15.992188 149.699219 17.171875 149.699219 18.347656 C 149.699219 19.003906 149.4375 19.53125 149.046875 19.917969 C 148.390625 20.578125 147.476562 20.839844 146.691406 21.101562 C 144.066406 21.886719 141.316406 22.148438 138.570312 21.886719 C 136.867188 21.757812 135.164062 21.496094 133.589844 20.839844 C 132.933594 20.578125 132.410156 20.179688 131.886719 19.917969 C 131.363281 19.53125 131.234375 19.003906 131.234375 18.480469 C 131.234375 17.300781 131.234375 16.121094 131.234375 14.945312 C 131.101562 14.8125 131.101562 14.683594 131.101562 14.550781 Z M 131.101562 14.550781 "/>
<path style=" stroke:none;fill-rule:nonzero;fill:rgb(100%,100%,100%);fill-opacity:1;" d="M 154.019531 12.980469 C 154.019531 13.765625 154.019531 14.421875 154.019531 15.074219 C 154.019531 16.910156 154.019531 18.871094 154.019531 20.707031 C 154.019531 20.839844 154.019531 20.972656 154.28125 21.101562 C 155.335938 21.886719 155.203125 23.328125 154.28125 24.113281 C 154.15625 24.242188 154.15625 24.375 154.15625 24.503906 C 154.15625 25.945312 154.15625 27.390625 154.15625 28.828125 C 154.15625 29.222656 153.894531 29.617188 153.496094 29.746094 C 153.105469 29.878906 152.710938 29.746094 152.449219 29.355469 C 152.320312 29.222656 152.320312 28.960938 152.320312 28.699219 C 152.320312 27.257812 152.320312 25.945312 152.320312 24.503906 C 152.320312 24.375 152.1875 24.242188 152.1875 24.113281 C 151.140625 23.328125 151.140625 21.886719 152.1875 21.101562 C 152.320312 20.972656 152.320312 20.839844 152.320312 20.707031 C 152.320312 18.480469 152.320312 16.121094 152.320312 13.898438 C 152.320312 13.636719 152.320312 13.636719 152.582031 13.503906 C 152.972656 13.375 153.496094 13.242188 154.019531 12.980469 Z M 154.019531 12.980469 "/>
</g>
</svg>
