<?xml version="1.0" encoding="UTF-8"?>
<svg xmlns="http://www.w3.org/2000/svg" xmlns:xlink="http://www.w3.org/1999/xlink" width="240px" height="38px" viewBox="0 0 242 38" version="1.1">
<g id="surface1">
<path style=" stroke:none;fill-rule:nonzero;fill:rgb(0%,0%,0%);fill-opacity:1;" d="M 27.871094 27.4375 L 27.871094 28.636719 L 19.441406 28.636719 L 19.441406 27.4375 L 20.335938 27.4375 C 20.933594 27.4375 21.429688 27.039062 21.527344 26.441406 C 21.527344 26.140625 21.429688 25.84375 21.328125 25.542969 C 20.832031 24.148438 19.640625 20.660156 19.34375 19.867188 L 8.929688 19.867188 C 8.035156 21.757812 6.847656 24.550781 6.847656 25.945312 C 6.847656 27.339844 7.246094 28.234375 7.839844 28.234375 C 7.839844 28.4375 7.144531 29.132812 5.558594 29.132812 C 3.773438 29.132812 3.574219 27.339844 3.574219 26.644531 C 3.574219 25.046875 4.667969 22.851562 5.757812 20.859375 C 9.425781 13.585938 12.699219 6.808594 12.699219 4.714844 C 12.699219 3.019531 11.609375 2.820312 11.308594 2.71875 C 11.308594 2.324219 12.003906 1.523438 13.492188 1.523438 C 15.972656 1.523438 16.960938 3.617188 17.757812 5.8125 C 18.253906 7.40625 24.699219 25.148438 24.699219 25.148438 C 25 26.34375 25.988281 27.242188 27.179688 27.4375 Z M 18.75 17.671875 C 17.359375 14.082031 16.070312 10.195312 14.78125 6.605469 C 14.089844 8.203125 12.898438 11.691406 9.921875 17.671875 Z M 18.75 17.671875 "/>
<path style=" stroke:none;fill-rule:nonzero;fill:rgb(0%,0%,0%);fill-opacity:1;" d="M 47.113281 10.195312 L 47.113281 11.195312 L 46.222656 11.195312 C 44.632812 11.195312 44.039062 11.890625 44.039062 14.082031 L 44.039062 27.738281 C 44.039062 32.523438 41.363281 36.710938 35.707031 36.710938 C 30.449219 36.710938 28.667969 34.414062 28.667969 33.019531 C 28.667969 31.925781 29.558594 30.925781 30.75 30.925781 C 30.75 32.722656 32.335938 34.914062 35.808594 34.914062 C 39.578125 34.914062 41.660156 31.925781 41.660156 27.9375 L 41.660156 18.570312 C 41.660156 14.679688 39.578125 11.691406 35.609375 11.691406 C 31.144531 11.691406 29.261719 15.476562 29.261719 19.464844 C 29.261719 23.953125 32.4375 26.644531 35.113281 26.644531 C 36.402344 26.742188 37.691406 26.34375 38.6875 25.445312 C 39.179688 25.644531 39.476562 26.042969 39.476562 26.542969 C 39.476562 27.636719 38.285156 28.4375 35.210938 28.4375 C 30.449219 28.4375 26.484375 24.550781 26.484375 19.765625 C 26.484375 19.664062 26.484375 19.566406 26.484375 19.464844 C 26.484375 14.484375 29.558594 10.097656 35.609375 10.097656 C 38.484375 10.097656 40.667969 11.390625 41.558594 12.988281 L 41.558594 12.488281 C 41.558594 10.792969 42.652344 10.296875 44.238281 10.296875 L 47.113281 10.296875 Z M 47.113281 10.195312 "/>
<path style=" stroke:none;fill-rule:nonzero;fill:rgb(0%,0%,0%);fill-opacity:1;" d="M 54.257812 20.859375 C 53.957031 20.460938 53.859375 19.964844 53.761719 19.566406 C 53.761719 18.371094 55.542969 18.371094 57.132812 18.371094 L 61.890625 18.371094 C 62.6875 18.371094 63.082031 18.167969 63.082031 17.273438 C 63.082031 13.984375 61.394531 10.992188 57.527344 10.992188 C 52.964844 10.992188 50.882812 15.28125 50.882812 19.566406 C 50.882812 23.449219 53.363281 27.4375 57.230469 27.4375 C 59.710938 27.539062 62.09375 26.242188 63.28125 24.050781 C 63.875 24.347656 64.371094 24.847656 64.46875 25.542969 C 64.46875 27.242188 62.289062 29.234375 57.132812 29.234375 C 50.6875 29.234375 48.105469 24.050781 48.105469 19.664062 C 48.105469 13.886719 51.277344 9.398438 57.527344 9.398438 C 61.792969 9.199219 65.363281 12.488281 65.460938 16.773438 C 65.460938 16.972656 65.460938 17.175781 65.460938 17.371094 C 65.460938 20.261719 64.46875 20.261719 62.191406 20.261719 C 56.339844 20.0625 55.445312 20.0625 54.257812 20.859375 "/>
<path style=" stroke:none;fill-rule:nonzero;fill:rgb(0%,0%,0%);fill-opacity:1;" d="M 88.867188 27.636719 L 88.867188 28.636719 L 86.390625 28.636719 C 84.308594 28.636719 83.414062 27.039062 83.414062 25.148438 L 83.414062 16.875 C 83.414062 12.886719 81.726562 11.292969 78.851562 11.292969 C 75.480469 11.292969 72.902344 14.28125 72.902344 19.167969 L 72.902344 25.542969 C 72.902344 26.441406 73.296875 27.539062 74.390625 27.539062 L 75.183594 27.539062 L 75.183594 28.535156 L 67.542969 28.535156 L 67.542969 27.539062 L 68.535156 27.539062 C 69.527344 27.539062 70.222656 26.742188 70.324219 25.84375 L 70.324219 13.285156 C 70.324219 12.390625 70.023438 11.195312 68.4375 11.195312 L 67.542969 11.195312 L 67.542969 10.296875 L 70.125 10.296875 C 72.40625 10.296875 72.800781 11.589844 72.800781 13.1875 C 74.191406 10.992188 76.671875 9.597656 79.25 9.597656 C 83.910156 9.597656 85.992188 12.390625 85.992188 16.074219 L 85.992188 25.148438 C 85.894531 26.441406 86.785156 27.539062 88.078125 27.636719 C 88.175781 27.636719 88.273438 27.636719 88.273438 27.636719 Z M 88.867188 27.636719 "/>
<path style=" stroke:none;fill-rule:nonzero;fill:rgb(0%,0%,0%);fill-opacity:1;" d="M 107.8125 25.046875 C 107.8125 26.441406 108.507812 27.539062 109.796875 27.539062 L 110.988281 27.539062 L 110.988281 28.535156 L 108.109375 28.535156 C 106.523438 28.535156 105.132812 27.242188 105.132812 25.644531 C 105.132812 25.542969 105.132812 25.445312 105.132812 25.445312 L 105.132812 18.070312 C 105.132812 14.183594 103.152344 11.390625 99.1875 11.390625 C 95.019531 11.390625 92.738281 15.476562 92.738281 19.566406 C 92.738281 23.652344 95.117188 27.339844 98.785156 27.339844 C 100.175781 27.339844 101.464844 26.839844 102.457031 25.84375 C 102.753906 26.242188 102.953125 26.644531 103.050781 27.140625 C 103.050781 28.933594 99.679688 29.035156 98.492188 29.035156 C 93.53125 29.035156 89.960938 24.746094 89.960938 19.566406 C 89.960938 15.082031 92.34375 9.800781 99.085938 9.800781 C 101.664062 9.800781 104.042969 10.894531 105.035156 12.488281 L 105.035156 4.613281 C 105.035156 3.617188 104.9375 2.222656 103.050781 2.222656 L 102.058594 2.222656 L 102.058594 1.226562 L 105.035156 1.226562 C 107.117188 1.226562 107.8125 2.324219 107.8125 4.316406 Z M 107.8125 25.046875 "/>
<path style=" stroke:none;fill-rule:nonzero;fill:rgb(0%,0%,0%);fill-opacity:1;" d="M 130.425781 27.636719 L 130.425781 28.636719 L 128.441406 28.636719 C 125.367188 28.636719 125.269531 26.441406 125.269531 25.347656 L 125.269531 19.363281 L 122.789062 19.363281 C 118.027344 19.363281 115.253906 20.460938 115.253906 23.652344 C 115.152344 25.542969 116.738281 27.242188 118.621094 27.242188 C 118.722656 27.242188 118.820312 27.242188 118.921875 27.242188 C 120.410156 27.339844 121.796875 26.644531 122.59375 25.445312 C 123.085938 25.644531 123.382812 26.042969 123.382812 26.542969 C 123.382812 27.339844 122.988281 28.832031 118.722656 28.832031 C 116.34375 28.832031 112.472656 27.539062 112.472656 23.550781 C 112.472656 18.765625 117.035156 17.671875 122.691406 17.671875 L 125.171875 17.671875 L 125.171875 15.878906 C 125.171875 14.082031 125.070312 10.894531 120.804688 10.894531 C 117.035156 10.894531 115.945312 13.484375 115.945312 15.378906 C 114.855469 15.378906 114.0625 14.484375 114.0625 13.382812 C 114.0625 13.382812 114.0625 13.382812 114.0625 13.285156 C 114.0625 10.894531 116.9375 9.199219 120.90625 9.199219 C 125.171875 9.199219 127.847656 10.792969 127.847656 15.878906 L 127.847656 24.648438 C 127.847656 26.441406 128.34375 27.539062 129.832031 27.539062 Z M 130.425781 27.636719 "/>
<path style=" stroke:none;fill-rule:nonzero;fill:rgb(0%,0%,0%);fill-opacity:1;" d="M 178.332031 34.8125 C 170.992188 34.8125 165.140625 28.832031 165.140625 21.558594 C 165.140625 18.070312 166.527344 14.679688 169.007812 12.1875 C 174.164062 7.007812 182.496094 7.007812 187.652344 12.1875 C 192.808594 17.371094 192.808594 25.746094 187.652344 30.925781 C 185.273438 33.417969 181.902344 34.914062 178.332031 34.8125 Z M 173.769531 27.9375 C 175.15625 29.035156 176.941406 29.632812 178.726562 29.632812 C 183.191406 29.632812 186.761719 26.042969 186.761719 21.558594 C 186.761719 17.074219 183.191406 13.484375 178.726562 13.484375 C 174.265625 13.484375 170.691406 17.074219 170.691406 21.558594 C 170.691406 23.253906 171.191406 24.847656 172.183594 26.242188 L 170.792969 29.335938 Z M 173.769531 27.9375 "/>
<path style=" stroke:none;fill-rule:nonzero;fill:rgb(0%,0%,0%);fill-opacity:1;" d="M 161.863281 9.597656 C 159.882812 9.699219 158.097656 10.894531 157.203125 12.6875 C 157.105469 11.09375 156.3125 10.097656 154.625 10.097656 L 151.945312 10.097656 L 151.945312 11.09375 L 152.84375 11.09375 C 153.832031 11.09375 154.726562 11.589844 154.726562 13.382812 L 154.726562 25.046875 C 154.726562 25.84375 154.429688 27.140625 153.039062 27.140625 L 152.046875 27.140625 L 152.046875 28.136719 L 159.484375 28.136719 L 159.484375 27.140625 L 158.890625 27.140625 C 157.503906 27.140625 157.203125 25.945312 157.203125 24.847656 L 157.203125 18.570312 C 157.203125 14.679688 158.992188 11.09375 161.769531 11.09375 C 162.859375 10.992188 163.949219 11.792969 164.046875 12.988281 C 164.046875 13.085938 164.046875 13.1875 164.046875 13.285156 C 164.046875 13.785156 163.851562 14.28125 163.550781 14.679688 C 163.75 15.082031 164.148438 15.179688 164.542969 15.179688 C 165.632812 15.179688 166.128906 14.082031 166.128906 13.085938 C 166.128906 11.195312 164.941406 9.597656 161.863281 9.597656 M 142.527344 9.898438 C 139.851562 9.898438 137.367188 11.390625 135.980469 13.683594 L 135.980469 12.488281 C 135.980469 11.195312 134.890625 10.097656 133.601562 10.097656 C 133.5 10.097656 133.5 10.097656 133.402344 10.097656 L 130.425781 10.097656 L 130.425781 11.09375 L 131.519531 11.09375 C 133.105469 11.09375 133.5 12.1875 133.5 13.382812 L 133.5 33.320312 C 133.5 33.917969 133.203125 35.214844 131.914062 35.214844 L 131.023438 35.214844 L 131.023438 36.207031 L 139.449219 36.207031 L 139.449219 35.214844 L 138.261719 35.214844 C 137.070312 35.3125 135.980469 34.414062 135.980469 33.121094 C 135.980469 33.019531 135.980469 32.917969 135.980469 32.820312 L 135.980469 18.96875 C 135.980469 15.28125 138.953125 11.589844 142.527344 11.589844 C 146.195312 11.589844 147.78125 15.082031 147.78125 19.464844 C 147.78125 23.851562 145.503906 27.140625 142.429688 27.140625 C 139.851562 27.140625 138.953125 25.542969 138.953125 25.542969 C 138.558594 25.84375 138.261719 26.34375 138.261719 26.839844 C 138.261719 27.738281 139.253906 28.734375 142.328125 28.734375 C 147.1875 28.734375 150.359375 23.851562 150.359375 19.265625 C 150.261719 15.179688 148.972656 9.898438 142.527344 9.898438 "/>
<path style=" stroke:none;fill-rule:nonzero;fill:rgb(0%,0%,0%);fill-opacity:1;" d="M 240.117188 27.140625 C 238.632812 27.140625 238.136719 26.042969 238.136719 24.25 L 238.136719 15.679688 C 238.136719 10.792969 235.457031 9.101562 231.292969 9.101562 C 227.523438 9.101562 224.648438 10.792969 224.648438 13.085938 C 224.546875 14.183594 225.34375 15.082031 226.433594 15.082031 C 226.433594 15.082031 226.433594 15.082031 226.53125 15.082031 C 226.53125 13.285156 227.621094 10.695312 231.292969 10.695312 C 235.558594 10.695312 235.558594 13.886719 235.558594 15.578125 L 235.558594 17.371094 L 233.078125 17.371094 C 227.523438 17.371094 223.058594 18.46875 223.058594 23.152344 C 223.058594 27.039062 226.828125 28.335938 229.207031 28.335938 C 233.375 28.335938 233.773438 26.941406 233.773438 26.140625 C 233.675781 25.644531 233.375 25.246094 232.976562 25.046875 C 232.085938 26.140625 230.796875 26.839844 229.410156 26.742188 C 227.523438 26.839844 225.9375 25.347656 225.839844 23.449219 C 225.839844 23.351562 225.839844 23.253906 225.839844 23.152344 C 225.839844 20.0625 228.515625 18.96875 233.179688 18.96875 L 235.65625 18.96875 L 235.65625 24.847656 C 235.65625 25.945312 235.757812 28.039062 238.730469 28.039062 L 240.714844 28.039062 L 240.714844 27.039062 L 240.117188 27.039062 Z M 220.777344 27.242188 C 219.589844 27.242188 218.695312 26.34375 218.695312 25.148438 L 218.695312 13.1875 C 218.695312 11.292969 218.101562 10.195312 215.921875 10.195312 L 213.34375 10.195312 L 213.34375 11.195312 L 214.234375 11.195312 C 215.226562 11.09375 216.019531 11.792969 216.214844 12.6875 C 216.214844 12.886719 216.214844 12.988281 216.214844 13.1875 L 216.214844 25.148438 C 216.316406 26.242188 215.425781 27.242188 214.332031 27.242188 C 214.234375 27.242188 214.234375 27.242188 214.132812 27.242188 L 213.242188 27.242188 L 213.242188 28.234375 L 221.671875 28.234375 L 221.671875 27.242188 Z M 219.191406 3.914062 C 219.191406 2.921875 218.398438 2.324219 217.308594 2.324219 C 216.417969 2.222656 215.621094 2.921875 215.523438 3.820312 C 215.523438 3.820312 215.523438 3.914062 215.523438 3.914062 C 215.621094 4.8125 216.417969 5.511719 217.308594 5.410156 C 218.398438 5.410156 219.191406 4.8125 219.191406 3.914062 M 203.027344 9.898438 C 200.351562 9.898438 197.867188 11.390625 196.480469 13.683594 L 196.480469 12.488281 C 196.480469 11.195312 195.390625 10.097656 194.101562 10.097656 C 194 10.097656 194 10.097656 193.902344 10.097656 L 190.925781 10.097656 L 190.925781 11.09375 L 192.019531 11.09375 C 193.605469 11.09375 194 12.1875 194 13.382812 L 194 33.320312 C 194 33.917969 193.703125 35.214844 192.414062 35.214844 L 191.523438 35.214844 L 191.523438 36.207031 L 199.949219 36.207031 L 199.949219 35.214844 L 198.761719 35.214844 C 197.570312 35.3125 196.480469 34.414062 196.480469 33.121094 C 196.480469 33.019531 196.480469 32.917969 196.480469 32.820312 L 196.480469 18.96875 C 196.480469 15.28125 199.453125 11.589844 203.027344 11.589844 C 206.695312 11.589844 208.28125 15.082031 208.28125 19.464844 C 208.28125 23.851562 206.003906 27.140625 202.929688 27.140625 C 200.351562 27.140625 199.453125 25.542969 199.453125 25.542969 C 199.058594 25.84375 198.761719 26.34375 198.761719 26.839844 C 198.761719 27.738281 199.753906 28.734375 202.828125 28.734375 C 207.6875 28.734375 210.859375 23.851562 210.859375 19.265625 C 210.761719 15.179688 209.472656 9.898438 203.027344 9.898438 "/>
</g>
</svg>
