<svg id="Capa_1" data-name="Capa 1" xmlns="http://www.w3.org/2000/svg" viewBox="0 0 47.1 42.59"><defs><style>.cls-1{fill:#575757;}</style></defs><path class="cls-1" d="M35.14,34.69a3.21,3.21,0,0,1-5.46,3c-.22.64-.4,1.25-.63,1.84a8.33,8.33,0,0,1-3.94,4.77,11.22,11.22,0,0,1-2.81.82,7.67,7.67,0,0,1-4.46-.43A7.37,7.37,0,0,1,14.12,41a14.64,14.64,0,0,1-1.33-5.4c0-.08,0-.15,0-.26-.76-.08-1.52-.13-2.27-.24A12.5,12.5,0,0,1,3.37,32,9,9,0,0,1,.46,25.82a4.51,4.51,0,0,1,3-4.62,12.63,12.63,0,0,1,5.4-.87A52.88,52.88,0,0,1,18.2,21.5c.91.2,1.81.44,2.84.69a12.68,12.68,0,0,1-.77-1.39c-.23-.55-.35-1.13-.55-1.69a1,1,0,0,0-.33-.48c-1.23-.86-2.49-1.69-3.73-2.53a1,1,0,0,1-.51-1.2.92.92,0,0,1,1.25-.58,6.24,6.24,0,0,1,.83.49l3.2,2.12a3.13,3.13,0,0,1,2.15-1.16v-1.4c0-1-.06-2-.08-3.08a1,1,0,0,1,.91-1.1,1,1,0,0,1,1,1.06c0,1.49.09,3,.11,4.46a1.13,1.13,0,0,0,.37.77,16.94,16.94,0,0,1,1.33,1.79c.16.22.28.47.46.78.15-.43.27-.79.39-1.15a49.52,49.52,0,0,1,4.41-10A16.14,16.14,0,0,1,34.72,4c2.57-2.18,5.45-1.33,7.22.65,2.77,3.09,3.16,6.66,2,10.48a35.62,35.62,0,0,1-1.46,3.45c-.07.16-.15.3-.19.38,1,.89,1.92,1.72,2.8,2.63a9.43,9.43,0,0,1,2,3.2,6.63,6.63,0,0,1-.32,5.64,8.72,8.72,0,0,1-5.19,4.66,10,10,0,0,1-4.91,0C36.15,35,35.67,34.83,35.14,34.69ZM8.84,22.16a12.21,12.21,0,0,0-4.43.63,2.83,2.83,0,0,0-2,3.42,7.59,7.59,0,0,0,4,5.6,14.34,14.34,0,0,0,7,1.58c1,0,1.28.28,1.31,1.27a14.91,14.91,0,0,0,.88,4.77,6.1,6.1,0,0,0,2.62,3.31,6.17,6.17,0,0,0,4.07.55,5.53,5.53,0,0,0,3.79-2,11.78,11.78,0,0,0,2.23-5.94.92.92,0,0,0-.11-.48q-2.81-5.09-5.63-10.16a.76.76,0,0,0-.4-.33A56.27,56.27,0,0,0,8.84,22.16ZM42.7,10.38A7.52,7.52,0,0,0,40.46,5.8,3.09,3.09,0,0,0,36.61,5a7.6,7.6,0,0,0-1,.76,14.66,14.66,0,0,0-2.84,3.76A56,56,0,0,0,28,21a1,1,0,0,0,.1.82c1.72,3.07,3.47,6.12,5.11,9.23a3.27,3.27,0,0,0,2.08,1.68c.34.12.69.24,1,.33a10.44,10.44,0,0,0,4,.4,6,6,0,0,0,4-2.69,5.4,5.4,0,0,0,1.16-4.51,7.47,7.47,0,0,0-1.88-3.37,15.66,15.66,0,0,0-3.11-2.63,1,1,0,0,1-.33-1.57c.22-.35.44-.7.64-1.06A14,14,0,0,0,42.7,10.38ZM21.61,19c.13.3.23.62.39.91L30.88,36c.08.13.15.27.24.39a1.27,1.27,0,0,0,1.3.5,1.23,1.23,0,0,0,1-.88,1.43,1.43,0,0,0-.19-1.22l-9-16.18a2.55,2.55,0,0,0-.24-.39,1.29,1.29,0,0,0-1.44-.45A1.46,1.46,0,0,0,21.61,19Z" transform="translate(-0.45 -2.7)"/></svg>